<svg width="831" height="280" viewBox="0 0 831 280" fill="none" xmlns="http://www.w3.org/2000/svg">
<g filter="url(#filter0_d_194_88)">
<path d="M100.632 87.8582L97.2215 72.7882L136.052 33.6282H156.182L100.632 87.8582ZM88.0915 110.628V33.6282H104.592V110.628H88.0915ZM138.032 110.628L109.212 72.4582L120.652 62.6682L157.722 110.628H138.032ZM160.28 110.628L190.53 33.6282H205.27L235.3 110.628H218.47L202.85 69.1582C202.41 67.9115 201.86 66.3715 201.2 64.5382C200.613 62.7048 199.99 60.7615 199.33 58.7082C198.67 56.6548 198.047 54.7115 197.46 52.8782C196.947 50.9715 196.507 49.4315 196.14 48.2582L199.11 48.1482C198.67 49.7615 198.157 51.4848 197.57 53.3182C197.057 55.0782 196.47 56.9115 195.81 58.8182C195.223 60.7248 194.6 62.5582 193.94 64.3182C193.353 66.0782 192.767 67.7648 192.18 69.3782L176.67 110.628H160.28ZM174.36 94.4582L179.86 81.0382H214.95L220.56 94.4582H174.36ZM246.217 110.628V33.6282H260.957L303.637 91.2682H300.667C300.153 87.5282 299.713 83.8248 299.347 80.1582C298.98 76.4182 298.723 72.4582 298.577 68.2782C298.503 64.0982 298.467 59.4415 298.467 54.3082V33.6282H314.527V110.628H299.567L256.117 52.6582H260.077C260.59 57.4982 260.993 61.4948 261.287 64.6482C261.58 67.8015 261.8 70.4415 261.947 72.5682C262.093 74.6215 262.203 76.4548 262.277 78.0682C262.35 79.6815 262.387 81.3682 262.387 83.1282V110.628H246.217ZM354.757 110.628V72.2382L355.527 77.6282L324.397 33.6282H343.317L367.077 67.6182L359.707 67.2882L381.047 33.6282H399.417L369.607 78.8382L371.257 71.2482V110.628H354.757ZM409.283 110.628V33.6282H461.203V48.1482H425.453V96.1082H461.973V110.628H409.283ZM416.983 78.3982V64.3182H455.923V78.3982H416.983ZM527.58 110.628L503.93 33.6282H520.98L533.63 76.6382C534.29 78.7648 534.84 81.0382 535.28 83.4582C535.72 85.8048 536.087 88.0048 536.38 90.0582C536.747 92.1115 537.004 93.7248 537.15 94.8982H534.4C535.06 91.7448 535.574 89.1048 535.94 86.9782C536.38 84.8515 536.82 82.9815 537.26 81.3682C537.7 79.7548 538.177 78.1782 538.69 76.6382L551.01 44.7382H564.65L576.64 76.6382C577.447 78.8382 578.107 80.9648 578.62 83.0182C579.207 84.9982 579.684 86.9048 580.05 88.7382C580.417 90.5715 580.784 92.4048 581.15 94.2382L578.62 94.7882C578.84 93.1748 579.024 91.8182 579.17 90.7182C579.317 89.6182 579.427 88.5915 579.5 87.6382C579.574 86.6848 579.684 85.7315 579.83 84.7782C579.977 83.7515 580.197 82.5782 580.49 81.2582C580.857 79.9382 581.297 78.3615 581.81 76.5282L594.35 33.6282H611.07L587.42 110.628H575.21L556.18 65.0882L557.83 65.4182L540.12 110.628H527.58ZM622.408 110.628V33.6282H674.328V48.1482H638.578V96.1082H675.098V110.628H622.408ZM630.108 78.3982V64.3182H669.048V78.3982H630.108ZM717.202 111.728C710.016 111.728 703.856 110.445 698.722 107.878C693.662 105.238 689.299 101.425 685.632 96.4382L695.972 84.7782C699.566 89.7648 703.122 93.1748 706.642 95.0082C710.236 96.7682 714.086 97.6482 718.192 97.6482C720.466 97.6482 722.482 97.3182 724.242 96.6582C726.076 95.9982 727.506 95.0815 728.532 93.9082C729.632 92.7348 730.182 91.3782 730.182 89.8382C730.182 88.6648 729.926 87.6015 729.412 86.6482C728.899 85.6215 728.166 84.7415 727.212 84.0082C726.259 83.2015 725.122 82.5048 723.802 81.9182C722.482 81.2582 721.016 80.7082 719.402 80.2682C717.789 79.8282 716.029 79.4248 714.122 79.0582C710.016 78.1782 706.422 77.0415 703.342 75.6482C700.262 74.2548 697.696 72.5682 695.642 70.5882C693.589 68.6082 692.049 66.3348 691.022 63.7682C690.069 61.1282 689.592 58.1948 689.592 54.9682C689.592 50.4215 690.876 46.4615 693.442 43.0882C696.009 39.6415 699.419 36.9648 703.672 35.0582C707.926 33.0782 712.619 32.0882 717.752 32.0882C724.719 32.0882 730.439 33.2615 734.912 35.6082C739.459 37.9548 743.089 41.2548 745.802 45.5082L735.242 55.8482C732.969 52.6948 730.366 50.3115 727.432 48.6982C724.499 47.0848 721.346 46.2782 717.972 46.2782C715.626 46.2782 713.536 46.6082 711.702 47.2682C709.942 47.8548 708.586 48.7715 707.632 50.0182C706.679 51.1915 706.202 52.5848 706.202 54.1982C706.202 55.5182 706.532 56.6915 707.192 57.7182C707.852 58.7448 708.769 59.6615 709.942 60.4682C711.189 61.2015 712.692 61.8615 714.452 62.4482C716.212 63.0348 718.156 63.5115 720.282 63.8782C724.316 64.6848 727.946 65.7848 731.172 67.1782C734.399 68.4982 737.149 70.1115 739.422 72.0182C741.769 73.9248 743.566 76.1248 744.812 78.6182C746.059 81.1115 746.682 83.8982 746.682 86.9782C746.682 92.1848 745.436 96.6215 742.942 100.288C740.449 103.955 737.002 106.778 732.602 108.758C728.202 110.738 723.069 111.728 717.202 111.728ZM777.577 110.628V48.4782H755.357V33.6282H817.177V48.4782H794.077V110.628H777.577Z" fill="white"/>
</g>
<g filter="url(#filter1_d_194_88)">
<path d="M11.7094 59.3005V38.9605H4.43738V34.1005H24.6694V38.9605H17.1094V59.3005H11.7094ZM45.042 59.3005V34.1005H50.442V59.3005H45.042ZM29.13 59.3005V34.1005H34.53V59.3005H29.13ZM31.326 49.2205V44.2525H47.778V49.2205H31.326ZM57.0089 59.3005V34.1005H74.0009V38.8525H62.3009V54.5485H74.2529V59.3005H57.0089ZM59.5289 48.7525V44.1445H72.2729V48.7525H59.5289Z" fill="#180161"/>
</g>
<g filter="url(#filter2_d_194_88)">
<path d="M115.209 195.95C110.281 195.95 105.737 195.118 101.577 193.454C97.4807 191.726 93.8967 189.326 90.8247 186.254C87.8167 183.118 85.4807 179.438 83.8167 175.214C82.2167 170.99 81.4167 166.35 81.4167 161.294C81.4167 156.366 82.2807 151.822 84.0087 147.662C85.7367 143.438 88.1687 139.758 91.3047 136.622C94.4407 133.486 98.0887 131.054 102.249 129.326C106.473 127.598 111.049 126.734 115.977 126.734C119.177 126.734 122.313 127.182 125.385 128.078C128.521 128.91 131.369 130.19 133.929 131.918C136.553 133.582 138.793 135.534 140.649 137.774L131.625 147.854C129.385 145.422 126.953 143.566 124.329 142.286C121.705 141.006 118.889 140.366 115.881 140.366C113.129 140.366 110.537 140.878 108.105 141.902C105.737 142.862 103.657 144.27 101.865 146.126C100.073 147.982 98.6647 150.19 97.6407 152.75C96.6167 155.31 96.1047 158.158 96.1047 161.294C96.1047 164.494 96.5847 167.406 97.5447 170.03C98.5687 172.59 100.009 174.798 101.865 176.654C103.721 178.446 105.929 179.854 108.489 180.878C111.113 181.838 113.993 182.318 117.129 182.318C119.177 182.318 121.129 182.03 122.985 181.454C124.905 180.878 126.697 180.078 128.361 179.054C130.025 178.03 131.497 176.846 132.777 175.502L139.785 186.734C138.313 188.462 136.265 190.03 133.641 191.438C131.017 192.846 128.105 193.966 124.905 194.798C121.705 195.566 118.473 195.95 115.209 195.95ZM181.686 195.95C176.758 195.95 172.182 195.086 167.958 193.358C163.798 191.63 160.182 189.23 157.11 186.158C154.102 183.022 151.734 179.342 150.006 175.118C148.342 170.894 147.51 166.254 147.51 161.198C147.51 156.206 148.342 151.598 150.006 147.374C151.734 143.15 154.102 139.47 157.11 136.334C160.182 133.198 163.798 130.766 167.958 129.038C172.182 127.31 176.758 126.446 181.686 126.446C186.614 126.446 191.126 127.31 195.222 129.038C199.382 130.766 202.998 133.198 206.07 136.334C209.142 139.47 211.51 143.15 213.174 147.374C214.902 151.598 215.766 156.238 215.766 161.294C215.766 166.222 214.902 170.798 213.174 175.022C211.51 179.246 209.142 182.926 206.07 186.062C202.998 189.198 199.382 191.63 195.222 193.358C191.126 195.086 186.614 195.95 181.686 195.95ZM181.686 182.318C184.502 182.318 187.094 181.806 189.462 180.782C191.83 179.694 193.878 178.222 195.606 176.366C197.398 174.446 198.774 172.206 199.734 169.646C200.694 167.086 201.174 164.302 201.174 161.294C201.174 158.222 200.694 155.406 199.734 152.846C198.774 150.286 197.398 148.046 195.606 146.126C193.878 144.206 191.83 142.734 189.462 141.71C187.094 140.622 184.502 140.078 181.686 140.078C178.87 140.078 176.246 140.622 173.814 141.71C171.446 142.734 169.366 144.206 167.574 146.126C165.846 147.982 164.502 150.222 163.542 152.846C162.582 155.406 162.102 158.222 162.102 161.294C162.102 165.326 162.934 168.942 164.598 172.142C166.326 175.278 168.662 177.774 171.606 179.63C174.55 181.422 177.91 182.318 181.686 182.318ZM228.801 194.99V127.79H243.201V182.03H273.633V194.99H228.801ZM287.02 194.99V127.79H301.42V182.03H331.852V194.99H287.02ZM345.239 194.99V127.79H390.551V140.462H359.351V182.318H391.223V194.99H345.239ZM351.959 166.862V154.574H385.943V166.862H351.959ZM435.552 195.95C430.624 195.95 426.08 195.118 421.92 193.454C417.824 191.726 414.24 189.326 411.168 186.254C408.16 183.118 405.824 179.438 404.16 175.214C402.56 170.99 401.76 166.35 401.76 161.294C401.76 156.366 402.624 151.822 404.352 147.662C406.08 143.438 408.512 139.758 411.648 136.622C414.784 133.486 418.432 131.054 422.592 129.326C426.816 127.598 431.392 126.734 436.32 126.734C439.52 126.734 442.656 127.182 445.728 128.078C448.864 128.91 451.712 130.19 454.272 131.918C456.896 133.582 459.136 135.534 460.992 137.774L451.968 147.854C449.728 145.422 447.296 143.566 444.672 142.286C442.048 141.006 439.232 140.366 436.224 140.366C433.472 140.366 430.88 140.878 428.448 141.902C426.08 142.862 424 144.27 422.208 146.126C420.416 147.982 419.008 150.19 417.984 152.75C416.96 155.31 416.448 158.158 416.448 161.294C416.448 164.494 416.928 167.406 417.888 170.03C418.912 172.59 420.352 174.798 422.208 176.654C424.064 178.446 426.272 179.854 428.832 180.878C431.456 181.838 434.336 182.318 437.472 182.318C439.52 182.318 441.472 182.03 443.328 181.454C445.248 180.878 447.04 180.078 448.704 179.054C450.368 178.03 451.84 176.846 453.12 175.502L460.128 186.734C458.656 188.462 456.608 190.03 453.984 191.438C451.36 192.846 448.448 193.966 445.248 194.798C442.048 195.566 438.816 195.95 435.552 195.95ZM486.19 194.99V140.75H466.798V127.79H520.75V140.75H500.59V194.99H486.19ZM530.917 194.99V182.606H542.149V140.174H530.917V127.79H567.685V140.174H556.549V182.606H567.685V194.99H530.917ZM611.811 195.95C606.883 195.95 602.307 195.086 598.083 193.358C593.923 191.63 590.307 189.23 587.235 186.158C584.227 183.022 581.859 179.342 580.131 175.118C578.467 170.894 577.635 166.254 577.635 161.198C577.635 156.206 578.467 151.598 580.131 147.374C581.859 143.15 584.227 139.47 587.235 136.334C590.307 133.198 593.923 130.766 598.083 129.038C602.307 127.31 606.883 126.446 611.811 126.446C616.739 126.446 621.251 127.31 625.347 129.038C629.507 130.766 633.123 133.198 636.195 136.334C639.267 139.47 641.635 143.15 643.299 147.374C645.027 151.598 645.891 156.238 645.891 161.294C645.891 166.222 645.027 170.798 643.299 175.022C641.635 179.246 639.267 182.926 636.195 186.062C633.123 189.198 629.507 191.63 625.347 193.358C621.251 195.086 616.739 195.95 611.811 195.95ZM611.811 182.318C614.627 182.318 617.219 181.806 619.587 180.782C621.955 179.694 624.003 178.222 625.731 176.366C627.523 174.446 628.899 172.206 629.859 169.646C630.819 167.086 631.299 164.302 631.299 161.294C631.299 158.222 630.819 155.406 629.859 152.846C628.899 150.286 627.523 148.046 625.731 146.126C624.003 144.206 621.955 142.734 619.587 141.71C617.219 140.622 614.627 140.078 611.811 140.078C608.995 140.078 606.371 140.622 603.939 141.71C601.571 142.734 599.491 144.206 597.699 146.126C595.971 147.982 594.627 150.222 593.667 152.846C592.707 155.406 592.227 158.222 592.227 161.294C592.227 165.326 593.059 168.942 594.723 172.142C596.451 175.278 598.787 177.774 601.731 179.63C604.675 181.422 608.035 182.318 611.811 182.318ZM658.926 194.99V127.79H671.79L709.038 178.094H706.446C705.998 174.83 705.614 171.598 705.294 168.398C704.974 165.134 704.75 161.678 704.622 158.03C704.558 154.382 704.526 150.318 704.526 145.838V127.79H718.542V194.99H705.486L667.566 144.398H671.022C671.47 148.622 671.822 152.11 672.078 154.862C672.334 157.614 672.526 159.918 672.654 161.774C672.782 163.566 672.878 165.166 672.942 166.574C673.006 167.982 673.038 169.454 673.038 170.99V194.99H658.926Z" fill="#4F1787"/>
</g>
<path d="M78.4215 236.367L83.8815 222.367H86.3015L91.7215 236.367H89.0415L86.0215 228.367C85.9682 228.221 85.8815 227.974 85.7615 227.627C85.6549 227.281 85.5349 226.901 85.4015 226.487C85.2682 226.074 85.1415 225.694 85.0215 225.347C84.9149 225.001 84.8415 224.741 84.8015 224.567L85.3015 224.547C85.2215 224.814 85.1282 225.121 85.0215 225.467C84.9149 225.801 84.8015 226.147 84.6815 226.507C84.5615 226.867 84.4415 227.214 84.3215 227.547C84.2015 227.881 84.0949 228.181 84.0015 228.447L81.0015 236.367H78.4215ZM80.9015 233.147L81.7815 230.907H88.1615L89.1415 233.147H80.9015ZM87.2415 221.227C86.7482 221.227 86.3749 221.101 86.1215 220.847C85.8682 220.581 85.7415 220.227 85.7415 219.787C85.7415 219.414 85.8682 219.081 86.1215 218.787C86.3749 218.494 86.7482 218.347 87.2415 218.347C87.7482 218.347 88.1215 218.481 88.3615 218.747C88.6149 219.001 88.7415 219.347 88.7415 219.787C88.7415 220.174 88.6149 220.514 88.3615 220.807C88.1215 221.087 87.7482 221.227 87.2415 221.227ZM82.8815 221.227C82.3749 221.227 81.9949 221.101 81.7415 220.847C81.5015 220.581 81.3815 220.227 81.3815 219.787C81.3815 219.414 81.5015 219.081 81.7415 218.787C81.9949 218.494 82.3749 218.347 82.8815 218.347C83.3882 218.347 83.7615 218.481 84.0015 218.747C84.2549 219.001 84.3815 219.347 84.3815 219.787C84.3815 220.174 84.2549 220.514 84.0015 220.807C83.7482 221.087 83.3749 221.227 82.8815 221.227ZM93.7859 236.367V225.827H96.2259V236.367H93.7859ZM94.9859 223.587C94.4926 223.587 94.1059 223.467 93.8259 223.227C93.5593 222.974 93.4259 222.621 93.4259 222.167C93.4259 221.741 93.5659 221.401 93.8459 221.147C94.1259 220.881 94.5059 220.747 94.9859 220.747C95.4793 220.747 95.8593 220.874 96.1259 221.127C96.4059 221.367 96.5459 221.714 96.5459 222.167C96.5459 222.581 96.4059 222.921 96.1259 223.187C95.8459 223.454 95.4659 223.587 94.9859 223.587ZM98.1858 240.387L97.2458 238.507C98.0724 238.507 98.6724 238.314 99.0458 237.927C99.4191 237.541 99.6058 236.927 99.6058 236.087V225.827H102.046V236.667C102.046 237.441 101.886 238.107 101.566 238.667C101.259 239.227 100.819 239.654 100.246 239.947C99.6724 240.241 98.9858 240.387 98.1858 240.387ZM100.886 223.587C100.379 223.587 99.9924 223.467 99.7258 223.227C99.4591 222.974 99.3258 222.621 99.3258 222.167C99.3258 221.741 99.4591 221.401 99.7258 221.147C100.006 220.881 100.392 220.747 100.886 220.747C101.379 220.747 101.759 220.874 102.026 221.127C102.306 221.367 102.446 221.714 102.446 222.167C102.446 222.581 102.306 222.921 102.026 223.187C101.746 223.454 101.366 223.587 100.886 223.587ZM111.01 236.367V229.627C111.01 229.054 110.817 228.607 110.43 228.287C110.057 227.954 109.57 227.787 108.97 227.787C108.41 227.787 107.904 227.901 107.45 228.127C106.997 228.341 106.577 228.687 106.19 229.167L104.67 227.647C105.297 226.981 105.99 226.474 106.75 226.127C107.51 225.781 108.33 225.607 109.21 225.607C110.05 225.607 110.77 225.741 111.37 226.007C111.984 226.274 112.457 226.674 112.79 227.207C113.124 227.727 113.29 228.367 113.29 229.127V236.367H111.01ZM108.01 236.567C107.33 236.567 106.724 236.434 106.19 236.167C105.657 235.901 105.23 235.534 104.91 235.067C104.604 234.587 104.45 234.027 104.45 233.387C104.45 232.827 104.55 232.341 104.75 231.927C104.95 231.501 105.244 231.147 105.63 230.867C106.03 230.587 106.524 230.381 107.11 230.247C107.71 230.101 108.397 230.027 109.17 230.027H112.19L112.01 231.787H109.03C108.67 231.787 108.35 231.821 108.07 231.887C107.79 231.954 107.55 232.054 107.35 232.187C107.15 232.321 107.004 232.481 106.91 232.667C106.817 232.841 106.77 233.054 106.77 233.307C106.77 233.574 106.837 233.807 106.97 234.007C107.104 234.194 107.284 234.341 107.51 234.447C107.737 234.554 108.004 234.607 108.31 234.607C108.75 234.607 109.164 234.534 109.55 234.387C109.95 234.241 110.304 234.034 110.61 233.767C110.917 233.501 111.157 233.201 111.33 232.867L111.83 234.227C111.55 234.694 111.204 235.101 110.79 235.447C110.39 235.794 109.95 236.067 109.47 236.267C109.004 236.467 108.517 236.567 108.01 236.567ZM111.13 223.607C110.65 223.607 110.277 223.481 110.01 223.227C109.757 222.974 109.63 222.621 109.63 222.167C109.63 221.741 109.764 221.394 110.03 221.127C110.297 220.861 110.664 220.727 111.13 220.727C111.61 220.727 111.977 220.854 112.23 221.107C112.497 221.347 112.63 221.701 112.63 222.167C112.63 222.581 112.497 222.927 112.23 223.207C111.964 223.474 111.597 223.607 111.13 223.607ZM106.85 223.607C106.37 223.607 105.997 223.481 105.73 223.227C105.477 222.974 105.35 222.621 105.35 222.167C105.35 221.741 105.484 221.394 105.75 221.127C106.03 220.861 106.397 220.727 106.85 220.727C107.33 220.727 107.697 220.854 107.95 221.107C108.217 221.347 108.35 221.701 108.35 222.167C108.35 222.581 108.217 222.927 107.95 223.207C107.684 223.474 107.317 223.607 106.85 223.607ZM115.889 236.367V225.827H118.269L118.309 227.987L117.849 228.227C117.995 227.761 118.255 227.334 118.629 226.947C119.015 226.547 119.475 226.227 120.009 225.987C120.542 225.734 121.095 225.607 121.669 225.607C122.469 225.607 123.135 225.767 123.669 226.087C124.215 226.407 124.622 226.887 124.889 227.527C125.155 228.167 125.289 228.967 125.289 229.927V236.367H122.849V230.107C122.849 229.561 122.775 229.114 122.629 228.767C122.482 228.407 122.255 228.147 121.949 227.987C121.642 227.814 121.269 227.741 120.829 227.767C120.469 227.767 120.135 227.827 119.829 227.947C119.522 228.054 119.255 228.214 119.029 228.427C118.815 228.627 118.642 228.867 118.509 229.147C118.389 229.414 118.329 229.707 118.329 230.027V236.367H117.109C116.882 236.367 116.662 236.367 116.449 236.367C116.249 236.367 116.062 236.367 115.889 236.367ZM133.956 236.367V221.567H136.396V236.367H133.956ZM144.051 236.567C142.945 236.567 141.965 236.341 141.111 235.887C140.271 235.421 139.611 234.787 139.131 233.987C138.665 233.174 138.431 232.241 138.431 231.187C138.431 230.361 138.565 229.607 138.831 228.927C139.098 228.247 139.471 227.661 139.951 227.167C140.431 226.661 140.998 226.274 141.651 226.007C142.318 225.727 143.038 225.587 143.811 225.587C144.518 225.587 145.165 225.721 145.751 225.987C146.351 226.254 146.871 226.621 147.311 227.087C147.751 227.541 148.085 228.087 148.311 228.727C148.551 229.354 148.665 230.041 148.651 230.787L148.631 231.667H140.111L139.631 229.967H146.571L146.271 230.307V229.847C146.231 229.447 146.098 229.094 145.871 228.787C145.645 228.467 145.351 228.221 144.991 228.047C144.645 227.861 144.258 227.767 143.831 227.767C143.178 227.767 142.625 227.894 142.171 228.147C141.718 228.387 141.371 228.747 141.131 229.227C140.905 229.707 140.791 230.301 140.791 231.007C140.791 231.687 140.931 232.281 141.211 232.787C141.505 233.294 141.918 233.687 142.451 233.967C142.985 234.247 143.605 234.387 144.311 234.387C144.805 234.387 145.258 234.307 145.671 234.147C146.098 233.987 146.551 233.701 147.031 233.287L148.231 234.967C147.871 235.301 147.458 235.587 146.991 235.827C146.538 236.054 146.058 236.234 145.551 236.367C145.045 236.501 144.545 236.567 144.051 236.567ZM154.49 236.567C153.73 236.567 153.07 236.394 152.51 236.047C151.963 235.701 151.537 235.214 151.23 234.587C150.937 233.961 150.79 233.207 150.79 232.327V225.827H153.23V231.807C153.23 232.634 153.423 233.287 153.81 233.767C154.21 234.247 154.763 234.487 155.47 234.487C155.817 234.487 156.13 234.434 156.41 234.327C156.703 234.207 156.957 234.047 157.17 233.847C157.383 233.634 157.55 233.381 157.67 233.087C157.79 232.794 157.85 232.481 157.85 232.147V225.827H160.29V236.367H157.91L157.87 234.167L158.31 233.927C158.15 234.421 157.877 234.867 157.49 235.267C157.117 235.667 156.67 235.987 156.15 236.227C155.63 236.454 155.077 236.567 154.49 236.567ZM165.473 233.147L165.013 230.827L170.013 225.827H173.273L165.473 233.147ZM163.193 236.367V221.567H165.633V236.367H163.193ZM170.293 236.367L166.433 231.687L168.153 230.207L173.333 236.367H170.293ZM180.522 236.367V229.627C180.522 229.054 180.329 228.607 179.942 228.287C179.569 227.954 179.082 227.787 178.482 227.787C177.922 227.787 177.415 227.901 176.962 228.127C176.509 228.341 176.089 228.687 175.702 229.167L174.182 227.647C174.809 226.981 175.502 226.474 176.262 226.127C177.022 225.781 177.842 225.607 178.722 225.607C179.562 225.607 180.282 225.741 180.882 226.007C181.495 226.274 181.969 226.674 182.302 227.207C182.635 227.727 182.802 228.367 182.802 229.127V236.367H180.522ZM177.522 236.567C176.842 236.567 176.235 236.434 175.702 236.167C175.169 235.901 174.742 235.534 174.422 235.067C174.115 234.587 173.962 234.027 173.962 233.387C173.962 232.827 174.062 232.341 174.262 231.927C174.462 231.501 174.755 231.147 175.142 230.867C175.542 230.587 176.035 230.381 176.622 230.247C177.222 230.101 177.909 230.027 178.682 230.027H181.702L181.522 231.787H178.542C178.182 231.787 177.862 231.821 177.582 231.887C177.302 231.954 177.062 232.054 176.862 232.187C176.662 232.321 176.515 232.481 176.422 232.667C176.329 232.841 176.282 233.054 176.282 233.307C176.282 233.574 176.349 233.807 176.482 234.007C176.615 234.194 176.795 234.341 177.022 234.447C177.249 234.554 177.515 234.607 177.822 234.607C178.262 234.607 178.675 234.534 179.062 234.387C179.462 234.241 179.815 234.034 180.122 233.767C180.429 233.501 180.669 233.201 180.842 232.867L181.342 234.227C181.062 234.694 180.715 235.101 180.302 235.447C179.902 235.794 179.462 236.067 178.982 236.267C178.515 236.467 178.029 236.567 177.522 236.567ZM191.22 236.367V225.827H193.62L193.66 227.967L193.26 228.127C193.38 227.781 193.56 227.461 193.8 227.167C194.04 226.861 194.326 226.594 194.66 226.367C194.993 226.141 195.346 225.967 195.72 225.847C196.093 225.714 196.48 225.647 196.88 225.647C197.453 225.647 197.96 225.741 198.4 225.927C198.84 226.114 199.206 226.401 199.5 226.787C199.806 227.174 200.04 227.667 200.2 228.267L199.82 228.187L199.96 227.867C200.12 227.547 200.333 227.254 200.6 226.987C200.866 226.721 201.166 226.487 201.5 226.287C201.833 226.074 202.18 225.914 202.54 225.807C202.913 225.701 203.273 225.647 203.62 225.647C204.42 225.647 205.086 225.807 205.62 226.127C206.153 226.447 206.553 226.934 206.82 227.587C207.086 228.241 207.22 229.047 207.22 230.007V236.367H204.76V230.167C204.76 229.367 204.6 228.774 204.28 228.387C203.973 228.001 203.493 227.807 202.84 227.807C202.493 227.807 202.173 227.867 201.88 227.987C201.586 228.094 201.326 228.254 201.1 228.467C200.886 228.667 200.72 228.907 200.6 229.187C200.48 229.454 200.42 229.754 200.42 230.087V236.367H197.96V230.147C197.96 229.387 197.793 228.807 197.46 228.407C197.14 228.007 196.68 227.807 196.08 227.807C195.733 227.807 195.413 227.867 195.12 227.987C194.84 228.094 194.586 228.254 194.36 228.467C194.146 228.667 193.98 228.901 193.86 229.167C193.74 229.434 193.68 229.727 193.68 230.047V236.367H191.22ZM214.891 236.567C213.785 236.567 212.805 236.341 211.951 235.887C211.111 235.421 210.451 234.787 209.971 233.987C209.505 233.174 209.271 232.241 209.271 231.187C209.271 230.361 209.405 229.607 209.671 228.927C209.938 228.247 210.311 227.661 210.791 227.167C211.271 226.661 211.838 226.274 212.491 226.007C213.158 225.727 213.878 225.587 214.651 225.587C215.358 225.587 216.005 225.721 216.591 225.987C217.191 226.254 217.711 226.621 218.151 227.087C218.591 227.541 218.925 228.087 219.151 228.727C219.391 229.354 219.505 230.041 219.491 230.787L219.471 231.667H210.951L210.471 229.967H217.411L217.111 230.307V229.847C217.071 229.447 216.938 229.094 216.711 228.787C216.485 228.467 216.191 228.221 215.831 228.047C215.485 227.861 215.098 227.767 214.671 227.767C214.018 227.767 213.465 227.894 213.011 228.147C212.558 228.387 212.211 228.747 211.971 229.227C211.745 229.707 211.631 230.301 211.631 231.007C211.631 231.687 211.771 232.281 212.051 232.787C212.345 233.294 212.758 233.687 213.291 233.967C213.825 234.247 214.445 234.387 215.151 234.387C215.645 234.387 216.098 234.307 216.511 234.147C216.938 233.987 217.391 233.701 217.871 233.287L219.071 234.967C218.711 235.301 218.298 235.587 217.831 235.827C217.378 236.054 216.898 236.234 216.391 236.367C215.885 236.501 215.385 236.567 214.891 236.567ZM221.67 236.367V225.827H224.05L224.09 227.987L223.63 228.227C223.777 227.761 224.037 227.334 224.41 226.947C224.797 226.547 225.257 226.227 225.79 225.987C226.323 225.734 226.877 225.607 227.45 225.607C228.25 225.607 228.917 225.767 229.45 226.087C229.997 226.407 230.403 226.887 230.67 227.527C230.937 228.167 231.07 228.967 231.07 229.927V236.367H228.63V230.107C228.63 229.561 228.557 229.114 228.41 228.767C228.263 228.407 228.037 228.147 227.73 227.987C227.423 227.814 227.05 227.741 226.61 227.767C226.25 227.767 225.917 227.827 225.61 227.947C225.303 228.054 225.037 228.214 224.81 228.427C224.597 228.627 224.423 228.867 224.29 229.147C224.17 229.414 224.11 229.707 224.11 230.027V236.367H222.89C222.663 236.367 222.443 236.367 222.23 236.367C222.03 236.367 221.843 236.367 221.67 236.367ZM234.137 236.367V225.827H236.577V236.367H234.137ZM235.337 223.587C234.844 223.587 234.457 223.467 234.177 223.227C233.911 222.974 233.777 222.621 233.777 222.167C233.777 221.741 233.917 221.401 234.197 221.147C234.477 220.881 234.857 220.747 235.337 220.747C235.831 220.747 236.211 220.874 236.477 221.127C236.757 221.367 236.897 221.714 236.897 222.167C236.897 222.581 236.757 222.921 236.477 223.187C236.197 223.454 235.817 223.587 235.337 223.587ZM245.577 236.367V221.567H248.017V236.367H245.577ZM256.752 236.367V229.627C256.752 229.054 256.559 228.607 256.172 228.287C255.799 227.954 255.312 227.787 254.712 227.787C254.152 227.787 253.646 227.901 253.192 228.127C252.739 228.341 252.319 228.687 251.932 229.167L250.412 227.647C251.039 226.981 251.732 226.474 252.492 226.127C253.252 225.781 254.072 225.607 254.952 225.607C255.792 225.607 256.512 225.741 257.112 226.007C257.726 226.274 258.199 226.674 258.532 227.207C258.866 227.727 259.032 228.367 259.032 229.127V236.367H256.752ZM253.752 236.567C253.072 236.567 252.466 236.434 251.932 236.167C251.399 235.901 250.972 235.534 250.652 235.067C250.346 234.587 250.192 234.027 250.192 233.387C250.192 232.827 250.292 232.341 250.492 231.927C250.692 231.501 250.986 231.147 251.372 230.867C251.772 230.587 252.266 230.381 252.852 230.247C253.452 230.101 254.139 230.027 254.912 230.027H257.932L257.752 231.787H254.772C254.412 231.787 254.092 231.821 253.812 231.887C253.532 231.954 253.292 232.054 253.092 232.187C252.892 232.321 252.746 232.481 252.652 232.667C252.559 232.841 252.512 233.054 252.512 233.307C252.512 233.574 252.579 233.807 252.712 234.007C252.846 234.194 253.026 234.341 253.252 234.447C253.479 234.554 253.746 234.607 254.052 234.607C254.492 234.607 254.906 234.534 255.292 234.387C255.692 234.241 256.046 234.034 256.352 233.767C256.659 233.501 256.899 233.201 257.072 232.867L257.572 234.227C257.292 234.694 256.946 235.101 256.532 235.447C256.132 235.794 255.692 236.067 255.212 236.267C254.746 236.467 254.259 236.567 253.752 236.567ZM262.791 236.367V223.147H265.231V236.367H262.791ZM260.711 228.107V225.827H267.531V228.107H260.711ZM270.564 236.367V223.147H273.004V236.367H270.564ZM268.484 228.107V225.827H275.304V228.107H268.484ZM277.458 236.367V225.827H279.898V236.367H277.458ZM278.658 223.587C278.164 223.587 277.778 223.467 277.498 223.227C277.231 222.974 277.098 222.621 277.098 222.167C277.098 221.741 277.238 221.401 277.518 221.147C277.798 220.881 278.178 220.747 278.658 220.747C279.151 220.747 279.531 220.874 279.798 221.127C280.078 221.367 280.218 221.714 280.218 222.167C280.218 222.581 280.078 222.921 279.798 223.187C279.518 223.454 279.138 223.587 278.658 223.587ZM283.298 236.367V225.827H285.738V236.367H283.298ZM284.498 223.587C284.004 223.587 283.618 223.467 283.338 223.227C283.071 222.974 282.938 222.621 282.938 222.167C282.938 221.741 283.078 221.401 283.358 221.147C283.638 220.881 284.018 220.747 284.498 220.747C284.991 220.747 285.371 220.874 285.638 221.127C285.918 221.367 286.058 221.714 286.058 222.167C286.058 222.581 285.918 222.921 285.638 223.187C285.358 223.454 284.978 223.587 284.498 223.587ZM294.877 236.367V229.627C294.877 229.054 294.684 228.607 294.297 228.287C293.924 227.954 293.437 227.787 292.837 227.787C292.277 227.787 291.771 227.901 291.317 228.127C290.864 228.341 290.444 228.687 290.057 229.167L288.537 227.647C289.164 226.981 289.857 226.474 290.617 226.127C291.377 225.781 292.197 225.607 293.077 225.607C293.917 225.607 294.637 225.741 295.237 226.007C295.851 226.274 296.324 226.674 296.657 227.207C296.991 227.727 297.157 228.367 297.157 229.127V236.367H294.877ZM291.877 236.567C291.197 236.567 290.591 236.434 290.057 236.167C289.524 235.901 289.097 235.534 288.777 235.067C288.471 234.587 288.317 234.027 288.317 233.387C288.317 232.827 288.417 232.341 288.617 231.927C288.817 231.501 289.111 231.147 289.497 230.867C289.897 230.587 290.391 230.381 290.977 230.247C291.577 230.101 292.264 230.027 293.037 230.027H296.057L295.877 231.787H292.897C292.537 231.787 292.217 231.821 291.937 231.887C291.657 231.954 291.417 232.054 291.217 232.187C291.017 232.321 290.871 232.481 290.777 232.667C290.684 232.841 290.637 233.054 290.637 233.307C290.637 233.574 290.704 233.807 290.837 234.007C290.971 234.194 291.151 234.341 291.377 234.447C291.604 234.554 291.871 234.607 292.177 234.607C292.617 234.607 293.031 234.534 293.417 234.387C293.817 234.241 294.171 234.034 294.477 233.767C294.784 233.501 295.024 233.201 295.197 232.867L295.697 234.227C295.417 234.694 295.071 235.101 294.657 235.447C294.257 235.794 293.817 236.067 293.337 236.267C292.871 236.467 292.384 236.567 291.877 236.567ZM305.776 236.367V229.627C305.776 229.054 305.583 228.607 305.196 228.287C304.823 227.954 304.336 227.787 303.736 227.787C303.176 227.787 302.669 227.901 302.216 228.127C301.763 228.341 301.343 228.687 300.956 229.167L299.436 227.647C300.063 226.981 300.756 226.474 301.516 226.127C302.276 225.781 303.096 225.607 303.976 225.607C304.816 225.607 305.536 225.741 306.136 226.007C306.749 226.274 307.223 226.674 307.556 227.207C307.889 227.727 308.056 228.367 308.056 229.127V236.367H305.776ZM302.776 236.567C302.096 236.567 301.489 236.434 300.956 236.167C300.423 235.901 299.996 235.534 299.676 235.067C299.369 234.587 299.216 234.027 299.216 233.387C299.216 232.827 299.316 232.341 299.516 231.927C299.716 231.501 300.009 231.147 300.396 230.867C300.796 230.587 301.289 230.381 301.876 230.247C302.476 230.101 303.163 230.027 303.936 230.027H306.956L306.776 231.787H303.796C303.436 231.787 303.116 231.821 302.836 231.887C302.556 231.954 302.316 232.054 302.116 232.187C301.916 232.321 301.769 232.481 301.676 232.667C301.583 232.841 301.536 233.054 301.536 233.307C301.536 233.574 301.603 233.807 301.736 234.007C301.869 234.194 302.049 234.341 302.276 234.447C302.503 234.554 302.769 234.607 303.076 234.607C303.516 234.607 303.929 234.534 304.316 234.387C304.716 234.241 305.069 234.034 305.376 233.767C305.683 233.501 305.923 233.201 306.096 232.867L306.596 234.227C306.316 234.694 305.969 235.101 305.556 235.447C305.156 235.794 304.716 236.067 304.236 236.267C303.769 236.467 303.283 236.567 302.776 236.567ZM310.654 236.367V225.827H313.034L313.074 227.987L312.614 228.227C312.761 227.761 313.021 227.334 313.394 226.947C313.781 226.547 314.241 226.227 314.774 225.987C315.308 225.734 315.861 225.607 316.434 225.607C317.234 225.607 317.901 225.767 318.434 226.087C318.981 226.407 319.388 226.887 319.654 227.527C319.921 228.167 320.054 228.967 320.054 229.927V236.367H317.614V230.107C317.614 229.561 317.541 229.114 317.394 228.767C317.248 228.407 317.021 228.147 316.714 227.987C316.408 227.814 316.034 227.741 315.594 227.767C315.234 227.767 314.901 227.827 314.594 227.947C314.288 228.054 314.021 228.214 313.794 228.427C313.581 228.627 313.408 228.867 313.274 229.147C313.154 229.414 313.094 229.707 313.094 230.027V236.367H311.874C311.648 236.367 311.428 236.367 311.214 236.367C311.014 236.367 310.828 236.367 310.654 236.367ZM334.721 236.367V229.627C334.721 229.054 334.528 228.607 334.141 228.287C333.768 227.954 333.281 227.787 332.681 227.787C332.121 227.787 331.615 227.901 331.161 228.127C330.708 228.341 330.288 228.687 329.901 229.167L328.381 227.647C329.008 226.981 329.701 226.474 330.461 226.127C331.221 225.781 332.041 225.607 332.921 225.607C333.761 225.607 334.481 225.741 335.081 226.007C335.695 226.274 336.168 226.674 336.501 227.207C336.835 227.727 337.001 228.367 337.001 229.127V236.367H334.721ZM331.721 236.567C331.041 236.567 330.435 236.434 329.901 236.167C329.368 235.901 328.941 235.534 328.621 235.067C328.315 234.587 328.161 234.027 328.161 233.387C328.161 232.827 328.261 232.341 328.461 231.927C328.661 231.501 328.955 231.147 329.341 230.867C329.741 230.587 330.235 230.381 330.821 230.247C331.421 230.101 332.108 230.027 332.881 230.027H335.901L335.721 231.787H332.741C332.381 231.787 332.061 231.821 331.781 231.887C331.501 231.954 331.261 232.054 331.061 232.187C330.861 232.321 330.715 232.481 330.621 232.667C330.528 232.841 330.481 233.054 330.481 233.307C330.481 233.574 330.548 233.807 330.681 234.007C330.815 234.194 330.995 234.341 331.221 234.447C331.448 234.554 331.715 234.607 332.021 234.607C332.461 234.607 332.875 234.534 333.261 234.387C333.661 234.241 334.015 234.034 334.321 233.767C334.628 233.501 334.868 233.201 335.041 232.867L335.541 234.227C335.261 234.694 334.915 235.101 334.501 235.447C334.101 235.794 333.661 236.067 333.181 236.267C332.715 236.467 332.228 236.567 331.721 236.567ZM343.12 236.567C342.2 236.567 341.366 236.414 340.62 236.107C339.886 235.787 339.286 235.334 338.82 234.747L340.4 233.387C340.8 233.827 341.246 234.154 341.74 234.367C342.233 234.567 342.753 234.667 343.3 234.667C343.526 234.667 343.726 234.641 343.9 234.587C344.086 234.534 344.246 234.454 344.38 234.347C344.513 234.241 344.613 234.114 344.68 233.967C344.76 233.821 344.8 233.661 344.8 233.487C344.8 233.167 344.68 232.914 344.44 232.727C344.306 232.647 344.1 232.554 343.82 232.447C343.54 232.327 343.173 232.214 342.72 232.107C342 231.921 341.393 231.707 340.9 231.467C340.42 231.214 340.046 230.934 339.78 230.627C339.553 230.361 339.386 230.074 339.28 229.767C339.173 229.447 339.12 229.094 339.12 228.707C339.12 228.107 339.293 227.574 339.64 227.107C340 226.641 340.473 226.274 341.06 226.007C341.646 225.741 342.3 225.607 343.02 225.607C343.553 225.607 344.066 225.674 344.56 225.807C345.066 225.941 345.533 226.134 345.96 226.387C346.386 226.627 346.753 226.921 347.06 227.267L345.7 228.767C345.46 228.527 345.186 228.314 344.88 228.127C344.586 227.927 344.286 227.774 343.98 227.667C343.673 227.561 343.386 227.507 343.12 227.507C342.866 227.507 342.64 227.534 342.44 227.587C342.24 227.627 342.073 227.694 341.94 227.787C341.806 227.881 341.7 228.001 341.62 228.147C341.553 228.281 341.52 228.434 341.52 228.607C341.533 228.781 341.573 228.941 341.64 229.087C341.72 229.221 341.826 229.334 341.96 229.427C342.093 229.521 342.306 229.627 342.6 229.747C342.893 229.867 343.273 229.981 343.74 230.087C344.393 230.261 344.94 230.454 345.38 230.667C345.82 230.881 346.166 231.127 346.42 231.407C346.673 231.647 346.853 231.927 346.96 232.247C347.066 232.567 347.12 232.927 347.12 233.327C347.12 233.954 346.94 234.514 346.58 235.007C346.233 235.487 345.76 235.867 345.16 236.147C344.56 236.427 343.88 236.567 343.12 236.567ZM350.447 236.367V223.147H352.887V236.367H350.447ZM348.367 228.107V225.827H355.187V228.107H348.367ZM357.341 236.367V225.827H359.781V236.367H357.341ZM358.541 223.587C358.047 223.587 357.661 223.467 357.381 223.227C357.114 222.974 356.981 222.621 356.981 222.167C356.981 221.741 357.121 221.401 357.401 221.147C357.681 220.881 358.061 220.747 358.541 220.747C359.034 220.747 359.414 220.874 359.681 221.127C359.961 221.367 360.101 221.714 360.101 222.167C360.101 222.581 359.961 222.921 359.681 223.187C359.401 223.454 359.021 223.587 358.541 223.587ZM373.12 240.087C371.493 239.074 370.253 237.807 369.4 236.287C368.546 234.767 368.12 233.074 368.12 231.207C368.12 229.354 368.546 227.667 369.4 226.147C370.266 224.614 371.513 223.341 373.14 222.327L374.48 223.727C373.16 224.647 372.16 225.754 371.48 227.047C370.8 228.327 370.46 229.714 370.46 231.207C370.46 232.687 370.8 234.081 371.48 235.387C372.16 236.681 373.16 237.781 374.48 238.687L373.12 240.087ZM382.54 236.367V222.367H388.5C389.42 222.367 390.193 222.501 390.82 222.767C391.46 223.034 391.94 223.434 392.26 223.967C392.58 224.487 392.74 225.121 392.74 225.867C392.74 226.641 392.533 227.294 392.12 227.827C391.72 228.361 391.146 228.727 390.4 228.927V228.527C391.013 228.661 391.553 228.901 392.02 229.247C392.486 229.581 392.846 230.001 393.1 230.507C393.353 231.001 393.48 231.567 393.48 232.207C393.48 232.887 393.366 233.487 393.14 234.007C392.926 234.527 392.606 234.961 392.18 235.307C391.766 235.654 391.266 235.921 390.68 236.107C390.106 236.281 389.453 236.367 388.72 236.367H382.54ZM385.06 234.027H388.58C389.313 234.027 389.88 233.867 390.28 233.547C390.693 233.214 390.9 232.741 390.9 232.127C390.9 231.754 390.8 231.434 390.6 231.167C390.4 230.901 390.12 230.701 389.76 230.567C389.4 230.421 388.973 230.347 388.48 230.347H385.06V234.027ZM385.06 228.107H388.28C388.653 228.107 388.986 228.034 389.28 227.887C389.573 227.741 389.8 227.541 389.96 227.287C390.12 227.034 390.2 226.741 390.2 226.407C390.2 225.861 390.013 225.441 389.64 225.147C389.28 224.854 388.753 224.707 388.06 224.707H385.06V228.107ZM402.349 236.567C401.336 236.567 400.403 236.387 399.549 236.027C398.709 235.667 397.969 235.167 397.329 234.527C396.703 233.874 396.216 233.107 395.869 232.227C395.523 231.347 395.349 230.387 395.349 229.347C395.349 228.307 395.523 227.347 395.869 226.467C396.216 225.587 396.703 224.827 397.329 224.187C397.969 223.534 398.709 223.027 399.549 222.667C400.403 222.307 401.336 222.127 402.349 222.127C403.349 222.127 404.276 222.307 405.129 222.667C405.983 223.027 406.723 223.534 407.349 224.187C407.976 224.841 408.463 225.607 408.809 226.487C409.156 227.367 409.329 228.321 409.329 229.347C409.329 230.387 409.156 231.347 408.809 232.227C408.463 233.094 407.976 233.854 407.349 234.507C406.723 235.161 405.983 235.667 405.129 236.027C404.276 236.387 403.349 236.567 402.349 236.567ZM402.349 234.087C402.989 234.087 403.569 233.974 404.089 233.747C404.623 233.507 405.083 233.174 405.469 232.747C405.856 232.321 406.156 231.821 406.369 231.247C406.596 230.661 406.709 230.027 406.709 229.347C406.709 228.667 406.596 228.041 406.369 227.467C406.156 226.881 405.856 226.374 405.469 225.947C405.083 225.521 404.623 225.194 404.089 224.967C403.569 224.727 402.989 224.607 402.349 224.607C401.709 224.607 401.123 224.727 400.589 224.967C400.069 225.194 399.609 225.521 399.209 225.947C398.823 226.374 398.523 226.874 398.309 227.447C398.096 228.021 397.989 228.654 397.989 229.347C397.989 230.267 398.176 231.087 398.549 231.807C398.923 232.514 399.436 233.074 400.089 233.487C400.743 233.887 401.496 234.087 402.349 234.087ZM418.17 236.567C417.156 236.567 416.223 236.387 415.37 236.027C414.53 235.667 413.79 235.167 413.15 234.527C412.523 233.874 412.036 233.107 411.69 232.227C411.343 231.347 411.17 230.387 411.17 229.347C411.17 228.307 411.343 227.347 411.69 226.467C412.036 225.587 412.523 224.827 413.15 224.187C413.79 223.534 414.53 223.027 415.37 222.667C416.223 222.307 417.156 222.127 418.17 222.127C419.17 222.127 420.096 222.307 420.95 222.667C421.803 223.027 422.543 223.534 423.17 224.187C423.796 224.841 424.283 225.607 424.63 226.487C424.976 227.367 425.15 228.321 425.15 229.347C425.15 230.387 424.976 231.347 424.63 232.227C424.283 233.094 423.796 233.854 423.17 234.507C422.543 235.161 421.803 235.667 420.95 236.027C420.096 236.387 419.17 236.567 418.17 236.567ZM418.17 234.087C418.81 234.087 419.39 233.974 419.91 233.747C420.443 233.507 420.903 233.174 421.29 232.747C421.676 232.321 421.976 231.821 422.19 231.247C422.416 230.661 422.53 230.027 422.53 229.347C422.53 228.667 422.416 228.041 422.19 227.467C421.976 226.881 421.676 226.374 421.29 225.947C420.903 225.521 420.443 225.194 419.91 224.967C419.39 224.727 418.81 224.607 418.17 224.607C417.53 224.607 416.943 224.727 416.41 224.967C415.89 225.194 415.43 225.521 415.03 225.947C414.643 226.374 414.343 226.874 414.13 227.447C413.916 228.021 413.81 228.654 413.81 229.347C413.81 230.267 413.996 231.087 414.37 231.807C414.743 232.514 415.256 233.074 415.91 233.487C416.563 233.887 417.316 234.087 418.17 234.087ZM433.99 236.567C432.976 236.567 432.043 236.387 431.19 236.027C430.35 235.667 429.61 235.167 428.97 234.527C428.343 233.874 427.856 233.107 427.51 232.227C427.163 231.347 426.99 230.387 426.99 229.347C426.99 228.307 427.163 227.347 427.51 226.467C427.856 225.587 428.343 224.827 428.97 224.187C429.61 223.534 430.35 223.027 431.19 222.667C432.043 222.307 432.976 222.127 433.99 222.127C434.99 222.127 435.916 222.307 436.77 222.667C437.623 223.027 438.363 223.534 438.99 224.187C439.616 224.841 440.103 225.607 440.45 226.487C440.796 227.367 440.97 228.321 440.97 229.347C440.97 230.387 440.796 231.347 440.45 232.227C440.103 233.094 439.616 233.854 438.99 234.507C438.363 235.161 437.623 235.667 436.77 236.027C435.916 236.387 434.99 236.567 433.99 236.567ZM433.99 234.087C434.63 234.087 435.21 233.974 435.73 233.747C436.263 233.507 436.723 233.174 437.11 232.747C437.496 232.321 437.796 231.821 438.01 231.247C438.236 230.661 438.35 230.027 438.35 229.347C438.35 228.667 438.236 228.041 438.01 227.467C437.796 226.881 437.496 226.374 437.11 225.947C436.723 225.521 436.263 225.194 435.73 224.967C435.21 224.727 434.63 224.607 433.99 224.607C433.35 224.607 432.763 224.727 432.23 224.967C431.71 225.194 431.25 225.521 430.85 225.947C430.463 226.374 430.163 226.874 429.95 227.447C429.736 228.021 429.63 228.654 429.63 229.347C429.63 230.267 429.816 231.087 430.19 231.807C430.563 232.514 431.076 233.074 431.73 233.487C432.383 233.887 433.136 234.087 433.99 234.087ZM449.37 236.487C448.263 236.487 447.277 236.254 446.41 235.787C445.543 235.307 444.857 234.654 444.35 233.827C443.857 232.987 443.61 232.041 443.61 230.987V222.347H446.21V230.807C446.21 231.434 446.35 231.994 446.63 232.487C446.923 232.981 447.31 233.374 447.79 233.667C448.27 233.947 448.797 234.087 449.37 234.087C449.983 234.087 450.537 233.947 451.03 233.667C451.523 233.374 451.917 232.981 452.21 232.487C452.503 231.994 452.65 231.434 452.65 230.807V222.347H455.13V230.987C455.13 232.041 454.877 232.987 454.37 233.827C453.877 234.654 453.197 235.307 452.33 235.787C451.463 236.254 450.477 236.487 449.37 236.487ZM464.331 236.487C463.224 236.487 462.238 236.254 461.371 235.787C460.504 235.307 459.818 234.654 459.311 233.827C458.818 232.987 458.571 232.041 458.571 230.987V222.347H461.171V230.807C461.171 231.434 461.311 231.994 461.591 232.487C461.884 232.981 462.271 233.374 462.751 233.667C463.231 233.947 463.758 234.087 464.331 234.087C464.944 234.087 465.498 233.947 465.991 233.667C466.484 233.374 466.878 232.981 467.171 232.487C467.464 231.994 467.611 231.434 467.611 230.807V222.347H470.091V230.987C470.091 232.041 469.838 232.987 469.331 233.827C468.838 234.654 468.158 235.307 467.291 235.787C466.424 236.254 465.438 236.487 464.331 236.487ZM479.292 236.487C478.185 236.487 477.199 236.254 476.332 235.787C475.465 235.307 474.779 234.654 474.272 233.827C473.779 232.987 473.532 232.041 473.532 230.987V222.347H476.132V230.807C476.132 231.434 476.272 231.994 476.552 232.487C476.845 232.981 477.232 233.374 477.712 233.667C478.192 233.947 478.719 234.087 479.292 234.087C479.905 234.087 480.459 233.947 480.952 233.667C481.445 233.374 481.839 232.981 482.132 232.487C482.425 231.994 482.572 231.434 482.572 230.807V222.347H485.052V230.987C485.052 232.041 484.799 232.987 484.292 233.827C483.799 234.654 483.119 235.307 482.252 235.787C481.385 236.254 480.399 236.487 479.292 236.487ZM494.253 236.487C493.146 236.487 492.16 236.254 491.293 235.787C490.426 235.307 489.74 234.654 489.233 233.827C488.74 232.987 488.493 232.041 488.493 230.987V222.347H491.093V230.807C491.093 231.434 491.233 231.994 491.513 232.487C491.806 232.981 492.193 233.374 492.673 233.667C493.153 233.947 493.68 234.087 494.253 234.087C494.866 234.087 495.42 233.947 495.913 233.667C496.406 233.374 496.8 232.981 497.093 232.487C497.386 231.994 497.533 231.434 497.533 230.807V222.347H500.013V230.987C500.013 232.041 499.76 232.987 499.253 233.827C498.76 234.654 498.08 235.307 497.213 235.787C496.346 236.254 495.36 236.487 494.253 236.487ZM509.214 236.487C508.107 236.487 507.121 236.254 506.254 235.787C505.387 235.307 504.701 234.654 504.194 233.827C503.701 232.987 503.454 232.041 503.454 230.987V222.347H506.054V230.807C506.054 231.434 506.194 231.994 506.474 232.487C506.767 232.981 507.154 233.374 507.634 233.667C508.114 233.947 508.641 234.087 509.214 234.087C509.827 234.087 510.381 233.947 510.874 233.667C511.367 233.374 511.761 232.981 512.054 232.487C512.347 231.994 512.494 231.434 512.494 230.807V222.347H514.974V230.987C514.974 232.041 514.721 232.987 514.214 233.827C513.721 234.654 513.041 235.307 512.174 235.787C511.307 236.254 510.321 236.487 509.214 236.487ZM524.175 236.487C523.068 236.487 522.081 236.254 521.215 235.787C520.348 235.307 519.661 234.654 519.155 233.827C518.661 232.987 518.415 232.041 518.415 230.987V222.347H521.015V230.807C521.015 231.434 521.155 231.994 521.435 232.487C521.728 232.981 522.115 233.374 522.595 233.667C523.075 233.947 523.601 234.087 524.175 234.087C524.788 234.087 525.341 233.947 525.835 233.667C526.328 233.374 526.721 232.981 527.015 232.487C527.308 231.994 527.455 231.434 527.455 230.807V222.347H529.935V230.987C529.935 232.041 529.681 232.987 529.175 233.827C528.681 234.654 528.001 235.307 527.135 235.787C526.268 236.254 525.281 236.487 524.175 236.487ZM539.175 240.087L537.835 238.687C539.155 237.767 540.155 236.661 540.835 235.367C541.515 234.074 541.855 232.687 541.855 231.207C541.855 229.714 541.515 228.321 540.835 227.027C540.155 225.734 539.155 224.634 537.835 223.727L539.195 222.327C540.822 223.341 542.062 224.607 542.915 226.127C543.768 227.647 544.195 229.341 544.195 231.207C544.195 233.061 543.762 234.754 542.895 236.287C542.042 237.807 540.802 239.074 539.175 240.087Z" fill="white" fill-opacity="0.65"/>
<defs>
<filter id="filter0_d_194_88" x="84.0913" y="32.0881" width="737.085" height="87.6401" filterUnits="userSpaceOnUse" color-interpolation-filters="sRGB">
<feFlood flood-opacity="0" result="BackgroundImageFix"/>
<feColorMatrix in="SourceAlpha" type="matrix" values="0 0 0 0 0 0 0 0 0 0 0 0 0 0 0 0 0 0 127 0" result="hardAlpha"/>
<feOffset dy="4"/>
<feGaussianBlur stdDeviation="2"/>
<feComposite in2="hardAlpha" operator="out"/>
<feColorMatrix type="matrix" values="0 0 0 0 0 0 0 0 0 0 0 0 0 0 0 0 0 0 0.25 0"/>
<feBlend mode="normal" in2="BackgroundImageFix" result="effect1_dropShadow_194_88"/>
<feBlend mode="normal" in="SourceGraphic" in2="effect1_dropShadow_194_88" result="shape"/>
</filter>
<filter id="filter1_d_194_88" x="0.4375" y="34.1006" width="77.8154" height="33.2" filterUnits="userSpaceOnUse" color-interpolation-filters="sRGB">
<feFlood flood-opacity="0" result="BackgroundImageFix"/>
<feColorMatrix in="SourceAlpha" type="matrix" values="0 0 0 0 0 0 0 0 0 0 0 0 0 0 0 0 0 0 127 0" result="hardAlpha"/>
<feOffset dy="4"/>
<feGaussianBlur stdDeviation="2"/>
<feComposite in2="hardAlpha" operator="out"/>
<feColorMatrix type="matrix" values="0 0 0 0 0 0 0 0 0 0 0 0 0 0 0 0 0 0 0.25 0"/>
<feBlend mode="normal" in2="BackgroundImageFix" result="effect1_dropShadow_194_88"/>
<feBlend mode="normal" in="SourceGraphic" in2="effect1_dropShadow_194_88" result="shape"/>
</filter>
<filter id="filter2_d_194_88" x="77.4165" y="126.446" width="645.126" height="77.5039" filterUnits="userSpaceOnUse" color-interpolation-filters="sRGB">
<feFlood flood-opacity="0" result="BackgroundImageFix"/>
<feColorMatrix in="SourceAlpha" type="matrix" values="0 0 0 0 0 0 0 0 0 0 0 0 0 0 0 0 0 0 127 0" result="hardAlpha"/>
<feOffset dy="4"/>
<feGaussianBlur stdDeviation="2"/>
<feComposite in2="hardAlpha" operator="out"/>
<feColorMatrix type="matrix" values="0 0 0 0 0 0 0 0 0 0 0 0 0 0 0 0 0 0 0.25 0"/>
<feBlend mode="normal" in2="BackgroundImageFix" result="effect1_dropShadow_194_88"/>
<feBlend mode="normal" in="SourceGraphic" in2="effect1_dropShadow_194_88" result="shape"/>
</filter>
</defs>
</svg>
