<svg width="752" height="476" viewBox="0 0 752 476" fill="none" xmlns="http://www.w3.org/2000/svg">
<rect width="631" height="338" rx="169" fill="white"/>
<path d="M622.247 119.409L678.031 389.815L453.572 337.995L622.247 119.409Z" fill="white"/>
<path d="M114.674 160.96C109.874 160.96 105.458 160.128 101.426 158.464C97.3944 156.8 93.9064 154.432 90.9624 151.36C88.0184 148.224 85.7144 144.544 84.0504 140.32C82.4504 136.032 81.6504 131.36 81.6504 126.304C81.6504 121.44 82.5144 116.928 84.2424 112.768C85.9704 108.608 88.3704 104.96 91.4424 101.824C94.5144 98.688 98.0984 96.256 102.194 94.528C106.29 92.8 110.706 91.936 115.442 91.936C118.706 91.936 121.874 92.416 124.946 93.376C128.018 94.336 130.834 95.68 133.394 97.408C136.018 99.072 138.162 101.056 139.826 103.36L131.858 111.904C129.362 109.344 126.738 107.392 123.986 106.048C121.298 104.704 118.45 104.032 115.442 104.032C112.498 104.032 109.714 104.576 107.09 105.664C104.53 106.752 102.29 108.288 100.37 110.272C98.5144 112.256 97.0424 114.624 95.9544 117.376C94.8664 120.064 94.3224 123.072 94.3224 126.4C94.3224 129.792 94.8344 132.896 95.8584 135.712C96.9464 138.464 98.4504 140.832 100.37 142.816C102.354 144.8 104.69 146.304 107.378 147.328C110.13 148.352 113.17 148.864 116.498 148.864C118.546 148.864 120.562 148.608 122.546 148.096C124.53 147.52 126.386 146.688 128.114 145.6C129.842 144.512 131.378 143.264 132.722 141.856L138.866 151.744C137.33 153.472 135.282 155.04 132.722 156.448C130.162 157.856 127.314 158.976 124.178 159.808C121.042 160.576 117.874 160.96 114.674 160.96ZM149.771 160V88.96H161.387V119.776L159.179 120.928C159.883 118.688 161.131 116.64 162.923 114.784C164.779 112.864 166.987 111.328 169.547 110.176C172.107 108.96 174.763 108.352 177.515 108.352C181.355 108.352 184.555 109.12 187.115 110.656C189.739 112.192 191.691 114.496 192.971 117.568C194.251 120.64 194.891 124.48 194.891 129.088V160H183.179V129.952C183.179 127.328 182.827 125.184 182.123 123.52C181.419 121.792 180.331 120.544 178.859 119.776C177.387 118.944 175.595 118.592 173.483 118.72C171.755 118.72 170.155 119.008 168.683 119.584C167.211 120.096 165.931 120.864 164.843 121.888C163.819 122.848 162.987 124 162.347 125.344C161.771 126.624 161.483 128.032 161.483 129.568V160H155.627C154.539 160 153.483 160 152.459 160C151.499 160 150.603 160 149.771 160ZM237.167 160V127.648C237.167 124.896 236.239 122.752 234.383 121.216C232.591 119.616 230.255 118.816 227.375 118.816C224.687 118.816 222.255 119.36 220.079 120.448C217.903 121.472 215.887 123.136 214.031 125.44L206.735 118.144C209.743 114.944 213.071 112.512 216.719 110.848C220.367 109.184 224.303 108.352 228.527 108.352C232.559 108.352 236.015 108.992 238.895 110.272C241.839 111.552 244.111 113.472 245.711 116.032C247.311 118.528 248.111 121.6 248.111 125.248V160H237.167ZM222.767 160.96C219.503 160.96 216.591 160.32 214.031 159.04C211.471 157.76 209.423 156 207.887 153.76C206.415 151.456 205.679 148.768 205.679 145.696C205.679 143.008 206.159 140.672 207.119 138.688C208.079 136.64 209.487 134.944 211.343 133.6C213.263 132.256 215.631 131.264 218.447 130.624C221.327 129.92 224.623 129.568 228.335 129.568H242.831L241.967 138.016H227.663C225.935 138.016 224.399 138.176 223.055 138.496C221.711 138.816 220.559 139.296 219.599 139.936C218.639 140.576 217.935 141.344 217.487 142.24C217.039 143.072 216.815 144.096 216.815 145.312C216.815 146.592 217.135 147.712 217.775 148.672C218.415 149.568 219.279 150.272 220.367 150.784C221.455 151.296 222.735 151.552 224.207 151.552C226.319 151.552 228.303 151.2 230.159 150.496C232.079 149.792 233.775 148.8 235.247 147.52C236.719 146.24 237.871 144.8 238.703 143.2L241.103 149.728C239.759 151.968 238.095 153.92 236.111 155.584C234.191 157.248 232.079 158.56 229.775 159.52C227.535 160.48 225.199 160.96 222.767 160.96ZM266.152 160V96.544H277.864V160H266.152ZM256.168 120.352V109.408H288.904V120.352H256.168ZM337.925 160L320.933 109.408L333.029 109.312L344.357 145.504L342.149 145.216L354.533 117.088H361.541L374.213 145.312L371.717 145.504L383.141 109.408H395.237L378.053 160H369.797L356.741 129.568L358.565 129.76L346.277 160H337.925ZM405.178 160V109.408H416.89V160H405.178ZM410.938 98.656C408.57 98.656 406.714 98.08 405.37 96.928C404.09 95.712 403.45 94.016 403.45 91.84C403.45 89.792 404.122 88.16 405.466 86.944C406.81 85.664 408.634 85.024 410.938 85.024C413.306 85.024 415.13 85.632 416.41 86.848C417.754 88 418.426 89.664 418.426 91.84C418.426 93.824 417.754 95.456 416.41 96.736C415.066 98.016 413.242 98.656 410.938 98.656ZM437.433 160V96.544H449.145V160H437.433ZM427.449 120.352V109.408H460.185V120.352H427.449ZM469.178 160V88.96H480.794V119.776L478.586 120.928C479.29 118.688 480.538 116.64 482.33 114.784C484.186 112.864 486.394 111.328 488.954 110.176C491.514 108.96 494.17 108.352 496.922 108.352C500.762 108.352 503.962 109.12 506.522 110.656C509.146 112.192 511.098 114.496 512.378 117.568C513.658 120.64 514.298 124.48 514.298 129.088V160H502.586V129.952C502.586 127.328 502.234 125.184 501.53 123.52C500.826 121.792 499.738 120.544 498.266 119.776C496.794 118.944 495.002 118.592 492.89 118.72C491.162 118.72 489.562 119.008 488.09 119.584C486.618 120.096 485.338 120.864 484.25 121.888C483.226 122.848 482.394 124 481.754 125.344C481.178 126.624 480.89 128.032 480.89 129.568V160H475.034C473.946 160 472.89 160 471.866 160C470.906 160 470.01 160 469.178 160Z" fill="black"/>
<path d="M96.9659 230.32L92.7419 216.4L125.958 182.8H145.446L96.9659 230.32ZM84.7739 250V182.8H101.19V250H84.7739ZM127.974 250L103.11 217.168L114.15 207.664L147.174 250H127.974ZM147.672 250L174.264 182.8H188.184L214.584 250H198.072L185.304 215.92C184.856 214.576 184.344 213.136 183.768 211.6C183.256 210.064 182.744 208.464 182.232 206.8C181.72 205.136 181.24 203.536 180.792 202C180.344 200.464 179.96 199.024 179.64 197.68L182.424 197.584C182.04 199.184 181.624 200.752 181.176 202.288C180.728 203.824 180.248 205.36 179.736 206.896C179.224 208.432 178.68 209.968 178.104 211.504C177.592 212.976 177.048 214.512 176.472 216.112L163.8 250H147.672ZM160.344 237.136L165.528 224.656H196.248L201.432 237.136H160.344ZM222.961 250V182.8H237.649L272.977 230.704L269.809 230.32C269.361 226.736 268.977 223.408 268.657 220.336C268.337 217.2 268.113 213.936 267.985 210.544C267.921 207.152 267.889 203.248 267.889 198.832V182.8H283.825V250H268.945L232.273 200.656L236.977 201.328C237.425 205.232 237.777 208.464 238.033 211.024C238.289 213.584 238.481 215.792 238.609 217.648C238.737 219.44 238.833 221.136 238.897 222.736C238.961 224.272 238.993 226 238.993 227.92V250H222.961ZM317.965 250V216.496L318.637 221.2L291.469 182.8H310.093L330.733 212.368L322.381 212.08L340.909 182.8H359.053L333.037 222.256L334.477 215.632V250H317.965ZM366.774 250V182.8H413.622V196.816H382.806V235.984H414.678V250H366.774ZM374.55 222.544V209.104H409.398V222.544H374.55Z" fill="url(#paint0_linear_229_15)"/>
<path d="M420.297 250L446.889 182.8H460.809L487.209 250H470.697L457.929 215.92C457.481 214.576 456.969 213.136 456.393 211.6C455.881 210.064 455.369 208.464 454.857 206.8C454.345 205.136 453.865 203.536 453.417 202C452.969 200.464 452.585 199.024 452.265 197.68L455.049 197.584C454.665 199.184 454.249 200.752 453.801 202.288C453.353 203.824 452.873 205.36 452.361 206.896C451.849 208.432 451.305 209.968 450.729 211.504C450.217 212.976 449.673 214.512 449.097 216.112L436.425 250H420.297ZM432.969 237.136L438.153 224.656H468.873L474.057 237.136H432.969ZM494.338 250V236.176H505.666V196.624H494.338V182.8H533.41V196.624H522.082V236.176H533.41V250H494.338ZM581.029 225.52C580.453 221.552 579.909 217.488 579.397 213.328C578.885 209.104 578.469 204.912 578.149 200.752C577.829 196.528 577.669 192.528 577.669 188.752V181.744H593.989V188.752C593.989 192.592 593.829 196.656 593.509 200.944C593.189 205.168 592.773 209.392 592.261 213.616C591.749 217.776 591.205 221.744 590.629 225.52H581.029ZM585.733 251.056C583.109 251.056 581.061 250.32 579.589 248.848C578.117 247.312 577.381 245.168 577.381 242.416C577.381 239.92 578.149 237.84 579.685 236.176C581.221 234.512 583.237 233.68 585.733 233.68C588.357 233.68 590.405 234.448 591.877 235.984C593.349 237.456 594.085 239.6 594.085 242.416C594.085 244.976 593.317 247.056 591.781 248.656C590.245 250.256 588.229 251.056 585.733 251.056Z" fill="black"/>
<defs>
<linearGradient id="paint0_linear_229_15" x1="59" y1="214" x2="618" y2="214" gradientUnits="userSpaceOnUse">
<stop stop-color="#C22E7D"/>
<stop offset="1" stop-color="#FB773C"/>
</linearGradient>
</defs>
</svg>
